<svg width="16" height="16" viewBox="0 0 16 16" fill="none" xmlns="http://www.w3.org/2000/svg">
<path d="M8.00006 15.3803C12.0761 15.3803 15.3804 12.076 15.3804 7.99999C15.3804 3.92396 12.0761 0.619686 8.00006 0.619686C3.92403 0.619686 0.619751 3.92396 0.619751 7.99999C0.619751 12.076 3.92403 15.3803 8.00006 15.3803Z" fill="#1775F9"/>
<path d="M8 16C3.58916 16 0 12.4115 0 8C0 3.58916 3.58916 0 8 0C12.4115 0 16 3.58916 16 8C16 12.4115 12.4115 16 8 16ZM8 1.23934C4.27203 1.23934 1.23934 4.27203 1.23934 8C1.23934 11.728 4.27203 14.7607 8 14.7607C11.728 14.7607 14.7607 11.7273 14.7607 8C14.7607 4.27203 11.728 1.23934 8 1.23934Z" fill="#1775F9"/>
<path d="M10.4781 10.5283C10.3486 10.5283 10.2185 10.488 10.1069 10.4044L7.62824 8.54532C7.47209 8.42882 7.38037 8.24479 7.38037 8.04957V4.33153C7.38037 3.98947 7.658 3.71185 8.00006 3.71185C8.34212 3.71185 8.61974 3.98947 8.61974 4.33153V7.73976L10.8506 9.41288C11.1245 9.61801 11.1802 10.0065 10.9745 10.2798C10.853 10.4434 10.6671 10.5283 10.4781 10.5283Z" fill="white"/>
</svg>
