<svg width="20" height="20" viewBox="0 0 20 20" fill="none" xmlns="http://www.w3.org/2000/svg">
<g clip-path="url(#clip0)">
<path d="M7.26548 13.5345C7.87238 13.4793 8.50341 13.4483 9.15513 13.4483C13.7275 13.4483 17.431 14.9138 17.431 16.7242C17.431 18.5345 13.7275 20 9.15513 20C4.58272 20 0.879272 18.5345 0.879272 16.7242C0.879272 15.4517 2.70686 14.3517 5.37927 13.8069L7.26548 13.5345Z" fill="#F29C1F"/>
<path d="M10.5862 8.94484L7.26548 13.5345L4.8103 16.9793C4.66739 17.1801 4.42821 17.2895 4.18285 17.2661C3.93749 17.2427 3.72323 17.0903 3.62078 16.8661C3.51833 16.6419 3.54325 16.3801 3.68616 16.1793L5.37926 13.8069L9.46548 8.14484L10.5862 8.94484Z" fill="#A56A43"/>
<path d="M13.6207 16.5517C13.8111 16.5517 13.9655 16.3973 13.9655 16.2069C13.9655 16.0164 13.8111 15.8621 13.6207 15.8621C13.4303 15.8621 13.2759 16.0164 13.2759 16.2069C13.2759 16.3973 13.4303 16.5517 13.6207 16.5517Z" fill="#E57E25"/>
<path d="M12.5863 15.8621C12.7767 15.8621 12.9311 15.7077 12.9311 15.5172C12.9311 15.3268 12.7767 15.1724 12.5863 15.1724C12.3958 15.1724 12.2415 15.3268 12.2415 15.5172C12.2415 15.7077 12.3958 15.8621 12.5863 15.8621Z" fill="#E57E25"/>
<path d="M11.8966 16.8966C12.087 16.8966 12.2414 16.7422 12.2414 16.5517C12.2414 16.3613 12.087 16.2069 11.8966 16.2069C11.7061 16.2069 11.5518 16.3613 11.5518 16.5517C11.5518 16.7422 11.7061 16.8966 11.8966 16.8966Z" fill="#E57E25"/>
<path d="M8.62061 18.2759C9.09671 18.2759 9.48267 17.8899 9.48267 17.4138C9.48267 16.9377 9.09671 16.5517 8.62061 16.5517C8.1445 16.5517 7.75854 16.9377 7.75854 17.4138C7.75854 17.8899 8.1445 18.2759 8.62061 18.2759Z" fill="#D25627"/>
<path d="M15.8205 1.53794L14.8378 2.84484C14.6585 2.70346 14.4757 2.56553 14.2861 2.43104C14.0964 2.29656 13.9033 2.16553 13.7102 2.04828L14.6964 0.734488C14.9192 0.426502 15.3486 0.355701 15.6585 0.575867C15.8091 0.680686 15.9101 0.842747 15.9378 1.02414C15.9694 1.20421 15.9271 1.38941 15.8205 1.53794Z" fill="#CB8252"/>
<path d="M15.0103 2.67198C14.831 2.5306 14.6482 2.39267 14.4586 2.25819C14.2689 2.1237 14.0758 1.99267 13.8827 1.87543C9.81719 -0.721123 5.07581 -0.621123 3.07236 2.18922L2.86892 3.50302C2.84751 3.63167 2.90098 3.76133 3.00685 3.8375L3.95857 4.51336L4.90685 5.18922C5.0132 5.26525 5.15341 5.2746 5.26891 5.21336L6.44133 4.59267L6.23788 5.90302C6.21747 6.03156 6.27073 6.16071 6.37581 6.2375L9.29305 8.31681L10.4137 9.11681L13.331 11.1961C13.4378 11.2708 13.5773 11.2801 13.6931 11.2203L14.8655 10.5961L14.6586 11.9099C14.6401 12.039 14.6945 12.1677 14.7999 12.2444L15.7517 12.9203L16.6999 13.5961C16.8063 13.6722 16.9465 13.6815 17.062 13.6203L18.2344 12.9996C20.2379 10.1858 18.7896 5.67543 15.0103 2.67198Z" fill="#FF5364"/>
<path d="M18.2344 13L14.8654 10.5966C16.9654 7.65174 16.7826 3.91726 14.4585 2.25864C14.6482 2.39312 14.8309 2.53105 15.0102 2.67243C18.7895 5.67588 20.2378 10.1862 18.2344 13Z" fill="#F3D55B"/>
<path d="M14.8654 10.5966L6.44128 4.5931C8.54474 1.64483 12.1309 0.599999 14.4585 2.25862C16.7861 3.91724 16.9654 7.65172 14.8654 10.5966Z" fill="#3B97D3"/>
<path d="M6.44133 4.59308L5.26891 5.21377C5.15341 5.27502 5.0132 5.26567 4.90685 5.18964L3.95857 4.51377L3.00685 3.83791C2.90098 3.76174 2.84751 3.63209 2.86892 3.50343L3.07236 2.18964L6.44133 4.59308Z" fill="#DF4D60"/>
<path d="M18.2344 13L17.062 13.6207C16.9465 13.6819 16.8063 13.6726 16.7 13.5966L15.7517 12.9207L14.8 12.2448C14.6945 12.1681 14.6401 12.0394 14.6586 11.9104L14.8655 10.5966L18.2344 13Z" fill="#F0C419"/>
<path d="M14.8655 10.5966L13.6931 11.2207C13.5773 11.2806 13.4379 11.2713 13.331 11.1966L10.4138 9.11725L9.29312 8.31725L6.37587 6.23794C6.27079 6.16115 6.21753 6.032 6.23794 5.90345L6.44139 4.59311L14.8655 10.5966Z" fill="#2980BA"/>
<path d="M15.0097 2.67241L15.007 2.67517L15.0097 2.67241Z" fill="#CB8252"/>
</g>
<defs>
<clipPath id="clip0">
<rect width="20" height="20" fill="white"/>
</clipPath>
</defs>
</svg>
