<svg width="16" height="16" viewBox="0 0 16 16" fill="none" xmlns="http://www.w3.org/2000/svg">
<path d="M10.4781 10.5283C10.3486 10.5283 10.2185 10.488 10.1069 10.4044L7.62824 8.54532C7.47209 8.42882 7.38037 8.24479 7.38037 8.04957V4.33153C7.38037 3.98947 7.658 3.71185 8.00006 3.71185C8.34212 3.71185 8.61974 3.98947 8.61974 4.33153V7.73976L10.8506 9.41288C11.1245 9.61801 11.1802 10.0065 10.9745 10.2798C10.853 10.4434 10.6671 10.5283 10.4781 10.5283Z" fill="white"/>
<path d="M13.5916 7.09591C13.3815 5.751 12.2155 4.71875 10.8125 4.71875C10.2847 4.71875 9.7775 4.86478 9.33759 5.13716C8.66834 4.01241 7.4635 3.3125 6.125 3.3125C4.05728 3.3125 2.375 4.99478 2.375 7.0625C2.375 7.07531 2.375 7.08859 2.37547 7.10141C1.04656 7.32525 0 8.48384 0 9.875C0 11.4259 1.29284 12.6875 2.84375 12.6875H13.1562C14.7072 12.6875 16 11.4259 16 9.875C16 8.47197 14.9365 7.30603 13.5916 7.09591Z" fill="#FFB229"/>
</svg>
